                <svg
                    preserveAspectRatio="xMidYMid meet"
                    width="2000"
                    height="29"
                    viewBox="0 0 2000 29"
                    fill="none"
                    xmlns="http://www.w3.org/2000/svg"
                >
                    <path
                        fill-rule="evenodd"
                        clip-rule="evenodd"
                        d="M492.877 4.91415C493.948 5.06098 495.01 5.20668 496.391 5.86143C497.621 6.5084 498.73 6.08575 500.016 5.59583C500.431 5.43769 500.865 5.27253 501.326 5.13408C501.623 5.01952 501.881 4.89719 502.135 4.77716L502.136 4.77701C502.557 4.57778 502.965 4.38491 503.509 4.24448C505.354 4.06902 507.216 3.83642 509.088 3.60249C512.965 3.11787 516.889 2.62754 520.813 2.62754C520.813 2.62754 520.962 2.76229 521.111 2.76229C524.84 4.37924 528.719 5.18771 532.896 4.64873C533.238 4.85454 533.57 5.05162 533.895 5.24441L533.898 5.24639L533.899 5.24701L533.901 5.24847C534.85 5.81148 535.738 6.33819 536.625 6.9394C538.117 7.07415 539.608 7.07415 541.1 6.66991C542.741 6.26568 544.382 6.26568 545.874 6.9394C547.94 8.05939 550.15 7.23996 552.156 6.49614C553.046 6.16609 553.895 5.85093 554.675 5.72669C555.8 5.87192 556.449 6.29104 557.065 6.68888C557.592 7.02929 558.095 7.35412 558.852 7.47838C560.229 6.17236 562.146 6.27285 564.105 6.37552C566.39 6.4953 568.731 6.61804 570.338 4.51398C571.528 5.30258 572.339 4.71805 573.196 4.09975C573.95 3.55593 574.74 2.98599 575.857 3.30127C579.14 7.03516 582.125 5.3092 585.217 3.52161C585.919 3.11589 586.626 2.707 587.343 2.35805C589.133 3.03178 591.073 3.03178 593.012 2.49279C595.334 4.66492 598.162 4.54712 600.96 4.43061C603.195 4.33751 605.411 4.24525 607.332 5.32245C608.636 5.10833 609.752 4.55392 610.838 4.01411C612.485 3.19515 614.066 2.40975 616.133 2.89704C618.222 0.741101 620.907 0.606355 623.443 1.41483C623.792 1.25697 624.091 1.19157 624.338 1.13741C624.513 1.0991 624.662 1.0664 624.785 1.0106C627.918 -0.202119 630.752 -0.606356 633.587 1.41483C634.631 2.2233 636.122 2.08856 637.465 1.68432C638.808 1.28009 640.15 1.28009 641.493 1.54958C642.994 1.76371 644.537 1.94004 646.1 2.11861L646.101 2.11871C647.488 2.27721 648.891 2.43749 650.294 2.62754C652.024 4.3643 654.25 5.20564 656.493 6.05323V6.05335C657.73 6.52091 658.973 6.99039 660.139 7.61313C661.324 7.4602 662.497 7.23133 663.665 7.00348C666.614 6.42829 669.529 5.85958 672.52 6.53517L672.523 6.53413C674.163 5.86075 675.803 5.18743 676.996 4.64873C677.389 4.24291 677.57 3.74162 677.748 3.25267V3.25258C678.041 2.44277 678.322 1.66687 679.531 1.41483C682.05 3.23465 684.887 2.94232 687.774 2.64486C688.307 2.58992 688.842 2.53481 689.377 2.49279C690.476 2.44962 691.56 2.32346 692.634 2.19851C694.911 1.93346 697.141 1.67386 699.371 2.2233C703.399 3.16652 707.427 3.97499 711.753 4.10974C714.587 4.24448 717.421 4.78347 719.808 6.40042C723.052 8.62718 725.279 8.10168 728.651 7.30643C729.156 7.18736 729.687 7.06223 730.25 6.9394C732.786 6.40042 736.963 5.18771 739.499 4.24448C740.244 5.05296 740.99 5.72669 742.482 5.86143C743.228 5.59194 744.123 5.32245 745.167 5.05296C746.071 5.93271 747.235 6.43149 748.371 6.9183C749.671 7.47536 750.935 8.01673 751.731 9.09531C753.246 8.96289 754.729 9.09077 756.154 9.21366C759.078 9.46587 761.756 9.69688 763.963 7.61313C764.858 6.66991 766.648 6.53517 768.14 6.53517C768.43 6.53517 768.731 6.55597 769.041 6.57734C769.847 6.63291 770.709 6.69235 771.57 6.40042C772.074 6.28672 772.445 5.98112 772.839 5.65569C773.38 5.20979 773.967 4.72662 775.001 4.64873C779.541 8.33914 785.03 7.6622 790.812 6.94913C792.63 6.72492 794.477 6.49712 796.333 6.40042C796.934 6.52113 797.416 6.80406 797.885 7.07966C798.463 7.41933 799.023 7.74788 799.764 7.74788C800.944 7.68863 802.01 7.26464 803.099 6.83103C804.487 6.27854 805.915 5.71044 807.67 5.86143C809.292 7.69303 811.772 7.42223 814.221 7.15476L814.222 7.15461C814.475 7.12698 814.728 7.09938 814.979 7.07415C817.218 6.86123 819.434 7.00578 821.655 7.15062C825.055 7.37242 828.465 7.59487 831.985 6.53517C834.392 7.9268 836.613 7.185 838.928 6.41167C840.199 5.98696 841.499 5.55274 842.874 5.4572C843.919 5.86143 845.112 6.26568 846.305 6.66991C848.394 5.05296 850.78 4.91822 853.018 5.18771C853.628 5.00397 854.084 4.68102 854.541 4.35807C855.088 3.97054 855.635 3.58301 856.449 3.43601C858.096 4.21532 859.784 3.8399 861.557 3.44568C863.156 3.0901 864.824 2.71923 866.593 3.16653C866.815 2.8848 867.025 2.6151 867.225 2.35743L867.226 2.35624C867.695 1.75167 868.114 1.2133 868.532 0.741107C870.544 1.6835 872.482 1.28079 874.586 0.843314C876.695 0.405068 878.972 -0.0680734 881.659 0.741107C881.855 0.847145 882.05 1.01808 882.273 1.21258V1.21271V1.21282C882.899 1.75976 883.738 2.49279 885.388 2.49279C889.076 0.232233 893.113 1.22833 897.191 2.2345L897.194 2.23512C897.733 2.36827 898.273 2.50158 898.814 2.62754C899.075 2.86337 899.308 3.14133 899.548 3.42769V3.42804L899.549 3.4285V3.4286C900.269 4.28733 901.052 5.22143 902.841 5.32245C903.243 5.09552 903.654 4.8533 904.075 4.6048L904.077 4.60332C906.156 3.3767 908.492 1.9976 911.344 1.54958H911.941C913.731 3.43601 915.819 3.57076 918.206 2.62754C919.847 2.08856 921.786 2.2233 923.278 3.16653C924.9 3.96548 926.521 3.8433 928.287 3.71026L928.35 3.7055C929.627 3.55499 930.884 3.34843 932.143 3.14148C934.266 2.79262 936.396 2.44262 938.643 2.35805C941.112 2.19875 943.372 2.83985 945.609 3.47425C947.156 3.91307 948.692 4.34869 950.278 4.51398C951.486 4.75652 952.725 4.75349 953.966 4.75046C955.484 4.74676 957.006 4.74304 958.482 5.18771C959.206 5.44921 959.719 5.26665 960.226 5.08632C960.764 4.89496 961.295 4.70611 962.063 5.05296H965.195C966.142 5.77671 967.089 5.53664 968.001 5.30538C968.957 5.06302 969.875 4.83034 970.715 5.72669C971.46 6.53517 972.505 7.07415 973.549 7.20889C978.322 7.74787 983.096 6.9394 987.72 3.84025C989.254 4.60222 990.393 4.75882 991.524 4.91415C992.592 5.06098 993.652 5.20668 995.03 5.86143C996.273 6.51646 997.392 6.10503 998.695 5.62577C998.94 5.53576 999.191 5.44335 999.451 5.35517V5.3538C999.943 5.18484 1000.32 4.9987 1000.69 4.82046C1001.14 4.60086 1001.56 4.39324 1002.14 4.24448C1003.99 4.06902 1005.86 3.83643 1007.73 3.6025C1011.62 3.11788 1015.55 2.62754 1019.48 2.62754C1019.48 2.62754 1019.63 2.76229 1019.78 2.76229C1023.52 4.37924 1027.41 5.18771 1031.59 4.64873C1031.94 4.85502 1032.27 5.05253 1032.6 5.24576C1033.55 5.8098 1034.44 6.33722 1035.33 6.9394C1036.83 7.07415 1039.42 7.07415 1040.92 6.66991C1042.56 6.26568 1044.21 6.26568 1045.7 6.9394C1047.77 8.05939 1049.99 7.23997 1052 6.49614C1052.89 6.1661 1053.74 5.85093 1054.52 5.72669C1055.65 5.87192 1056.3 6.29104 1056.92 6.68888C1057.44 7.02929 1057.95 7.35412 1058.71 7.47838C1060.09 6.17236 1062.01 6.27285 1063.97 6.37552C1066.26 6.4953 1068.61 6.61804 1070.22 4.51398C1071.41 5.30257 1072.22 4.71805 1073.08 4.09977C1073.84 3.55594 1074.63 2.98599 1075.75 3.30127C1079.04 7.03517 1082.03 5.30919 1085.13 3.5216C1085.83 3.11589 1086.54 2.707 1087.26 2.35805C1089.06 3.03178 1091 3.03178 1092.94 2.49279C1095.27 4.66492 1098.1 4.54712 1100.91 4.43061C1103.15 4.33751 1105.37 4.24525 1107.29 5.32245C1108.6 5.10833 1109.72 4.55393 1110.81 4.01413C1112.46 3.19516 1114.04 2.40975 1116.11 2.89704C1118.21 0.741101 1120.9 0.606355 1123.44 1.41483C1123.79 1.25697 1124.09 1.19158 1124.34 1.13742C1124.51 1.09911 1124.66 1.06641 1124.79 1.0106C1127.93 -0.202119 1130.77 -0.606356 1133.61 1.41483C1134.65 2.2233 1136.15 2.08856 1137.49 1.68432C1138.84 1.28009 1140.18 1.28009 1141.53 1.54958C1143.03 1.76372 1144.58 1.94005 1146.15 2.11863C1147.54 2.27715 1148.94 2.43745 1150.35 2.62754C1152.08 4.3643 1154.32 5.20564 1156.56 6.05322C1157.8 6.52082 1159.05 6.99032 1160.22 7.61313C1161.4 7.4602 1162.58 7.23134 1163.75 7.00349C1166.71 6.4283 1169.63 5.85957 1172.63 6.53517C1174.27 5.86143 1175.91 5.18771 1177.11 4.64873C1177.5 4.24291 1177.69 3.7416 1177.86 3.25264C1178.16 2.44281 1178.44 1.66688 1179.65 1.41483C1182.18 3.23465 1185.02 2.94232 1187.91 2.64486C1188.45 2.58993 1188.98 2.53481 1189.52 2.49279C1190.62 2.44962 1191.71 2.32345 1192.78 2.1985C1195.06 1.93346 1197.3 1.67386 1199.54 2.2233C1203.57 3.16652 1207.61 3.97499 1211.94 4.10974C1214.78 4.24448 1217.62 4.78347 1220.02 6.40042C1223.27 8.62718 1225.5 8.10168 1228.88 7.30642C1229.39 7.18735 1229.92 7.06223 1230.48 6.9394C1233.02 6.40042 1237.21 5.18771 1239.75 4.24448C1240.5 5.05296 1241.25 5.72669 1242.74 5.86143C1243.49 5.59194 1244.38 5.32245 1245.43 5.05296C1246.34 5.93272 1247.5 6.43149 1248.64 6.91831C1249.95 7.47536 1251.21 8.01674 1252.01 9.09531C1253.53 8.96289 1255.01 9.09077 1256.44 9.21366C1259.37 9.46587 1262.06 9.69688 1264.27 7.61313C1265.17 6.66991 1266.96 6.53517 1268.45 6.53517C1268.74 6.53517 1269.05 6.55597 1269.36 6.57734C1270.17 6.63291 1271.03 6.69235 1271.89 6.40042C1272.4 6.28672 1272.77 5.98115 1273.16 5.65572C1273.71 5.20981 1274.29 4.72662 1275.33 4.64873C1279.88 8.33914 1285.38 7.6622 1291.18 6.94913C1293 6.72492 1294.85 6.49712 1296.71 6.40042C1297.31 6.52113 1297.79 6.80405 1298.26 7.07964C1298.84 7.41932 1299.4 7.74788 1300.15 7.74788C1301.33 7.68863 1302.4 7.26464 1303.49 6.83104C1304.88 6.27855 1306.31 5.71044 1308.07 5.86143C1309.7 7.69303 1312.18 7.42223 1314.64 7.15476C1314.89 7.12708 1315.14 7.09943 1315.4 7.07415C1317.64 6.86123 1319.86 7.00578 1322.09 7.15061C1325.49 7.37242 1328.91 7.59487 1332.44 6.53517C1334.85 7.92681 1337.08 7.18499 1339.4 6.41167C1340.67 5.98696 1341.97 5.55274 1343.35 5.4572C1344.4 5.86143 1345.6 6.26568 1346.79 6.66991C1348.88 5.05296 1351.28 4.91822 1353.52 5.18771C1354.13 5.00397 1354.59 4.68103 1355.04 4.35809C1355.59 3.97055 1356.14 3.58301 1356.96 3.43601C1358.61 4.21532 1360.3 3.83991 1362.08 3.44568C1363.68 3.0901 1365.35 2.71922 1367.12 3.16653C1367.35 2.88492 1367.56 2.61534 1367.76 2.35775C1368.23 1.75258 1368.65 1.21369 1369.07 0.741107C1371.08 1.6835 1373.03 1.28079 1375.13 0.843317C1377.25 0.40507 1379.53 -0.068075 1382.22 0.741107C1382.42 0.847184 1382.61 1.01821 1382.84 1.2128C1383.47 1.75973 1384.31 2.49279 1385.96 2.49279C1389.66 0.23222 1393.7 1.22834 1397.79 2.23452C1398.33 2.36787 1398.87 2.50139 1399.41 2.62754C1399.68 2.8636 1399.91 3.14186 1400.15 3.42852C1400.87 4.28728 1401.66 5.22143 1403.45 5.32245C1403.86 5.09503 1404.27 4.85224 1404.69 4.60318C1406.77 3.37659 1409.11 1.99758 1411.97 1.54958H1412.57C1414.36 3.43601 1416.46 3.57076 1418.85 2.62754C1420.49 2.08856 1422.44 2.2233 1423.93 3.16653C1425.56 3.96547 1427.18 3.8433 1428.95 3.71027L1429.02 3.7055C1430.3 3.55499 1431.56 3.34843 1432.82 3.14148C1434.94 2.79262 1437.08 2.44262 1439.33 2.35805C1441.81 2.19875 1444.07 2.83985 1446.31 3.47425C1447.86 3.91307 1449.4 4.34869 1450.99 4.51398C1452.2 4.75652 1453.44 4.75349 1454.69 4.75046C1456.21 4.74676 1457.73 4.74304 1459.21 5.18771C1459.94 5.44921 1460.45 5.26665 1460.96 5.08632C1461.5 4.89496 1462.03 4.70611 1462.8 5.05296H1465.94C1466.89 5.77671 1467.84 5.53664 1468.75 5.30538C1469.71 5.06302 1470.63 4.83033 1471.47 5.72669C1472.22 6.53517 1473.27 7.07415 1474.31 7.20889C1479.1 7.74787 1483.88 6.9394 1488.52 3.84025C1490.05 4.60222 1491.2 4.75882 1492.33 4.91415C1493.4 5.06098 1494.46 5.20668 1495.84 5.86143C1497.07 6.50839 1498.18 6.08576 1499.47 5.59584C1499.88 5.4377 1500.32 5.27255 1500.78 5.13411C1501.07 5.01948 1501.33 4.89708 1501.59 4.777C1502.01 4.57777 1502.42 4.3849 1502.96 4.24448C1504.81 4.06902 1506.67 3.83642 1508.54 3.60249C1512.42 3.11787 1516.34 2.62754 1520.26 2.62754C1520.26 2.62754 1520.41 2.76229 1520.56 2.76229C1524.29 4.37924 1528.17 5.18771 1532.35 4.64873C1532.68 4.85216 1533.01 5.04707 1533.33 5.23773L1533.35 5.24639V5.24701C1534.3 5.81057 1535.19 6.33766 1536.08 6.9394C1537.57 7.07415 1539.06 7.07415 1540.55 6.66991C1542.19 6.26568 1543.83 6.26568 1545.32 6.9394C1547.39 8.05939 1549.6 7.23996 1551.61 6.49614C1552.5 6.16609 1553.35 5.85093 1554.13 5.72669C1555.25 5.87192 1555.9 6.29104 1556.52 6.68888C1557.04 7.02929 1557.55 7.35412 1558.3 7.47838C1559.68 6.17236 1561.6 6.27285 1563.56 6.37552C1565.84 6.4953 1568.18 6.61804 1569.79 4.51398C1570.98 5.30257 1571.79 4.71805 1572.65 4.09976C1573.4 3.55593 1574.19 2.98599 1575.31 3.30127C1578.59 7.03515 1581.58 5.30921 1584.67 3.52163C1585.37 3.11591 1586.08 2.707 1586.79 2.35805C1588.58 3.03178 1590.52 3.03178 1592.46 2.49279C1594.78 4.66492 1597.61 4.54712 1600.41 4.43061C1602.65 4.33751 1604.86 4.24525 1606.78 5.32245C1608.09 5.10833 1609.2 4.55394 1610.29 4.01413C1611.94 3.19516 1613.52 2.40975 1615.58 2.89704C1617.67 0.741101 1620.36 0.606355 1622.89 1.41483C1623.24 1.25697 1623.54 1.19157 1623.79 1.13741C1623.96 1.0991 1624.11 1.0664 1624.24 1.0106C1627.37 -0.202119 1630.2 -0.606356 1633.04 1.41483C1634.08 2.2233 1635.57 2.08856 1636.92 1.68432C1638.26 1.28009 1639.6 1.28009 1640.94 1.54958C1642.45 1.76372 1643.99 1.94005 1645.55 2.11862C1646.94 2.27714 1648.34 2.43744 1649.74 2.62754C1651.48 4.36431 1653.7 5.20565 1655.94 6.05324C1657.18 6.52084 1658.42 6.99034 1659.59 7.61313C1660.78 7.46022 1661.95 7.23141 1663.12 7.0036V7.00348C1666.06 6.4283 1668.98 5.85957 1671.97 6.53517L1671.98 6.5331C1673.62 5.86006 1675.25 5.18716 1676.45 4.64873C1676.84 4.24291 1677.02 3.7416 1677.2 3.25265C1677.49 2.44281 1677.77 1.66688 1678.98 1.41483C1681.5 3.23466 1684.34 2.94231 1687.22 2.64485C1687.76 2.58992 1688.29 2.53481 1688.83 2.49279C1689.93 2.44962 1691.01 2.32346 1692.08 2.19851C1694.36 1.93346 1696.59 1.67386 1698.82 2.2233C1702.85 3.16652 1706.88 3.97499 1711.2 4.10974C1714.04 4.24448 1716.87 4.78347 1719.26 6.40042C1722.5 8.62718 1724.73 8.10168 1728.1 7.30642C1728.61 7.18735 1729.14 7.06223 1729.7 6.9394C1732.24 6.40042 1736.41 5.18771 1738.95 4.24448C1739.7 5.05296 1740.44 5.72669 1741.93 5.86143C1742.68 5.59194 1743.57 5.32245 1744.62 5.05296C1745.52 5.93272 1746.69 6.43149 1747.82 6.91831C1749.12 7.47536 1750.39 8.01674 1751.18 9.09531C1752.7 8.96289 1754.18 9.09077 1755.6 9.21366C1758.53 9.46587 1761.21 9.69688 1763.41 7.61313C1764.31 6.66991 1766.1 6.53517 1767.59 6.53517C1767.88 6.53517 1768.18 6.55597 1768.49 6.57734C1769.3 6.63291 1770.16 6.69235 1771.02 6.40042C1771.53 6.28672 1771.9 5.98112 1772.29 5.65569C1772.83 5.20979 1773.42 4.72662 1774.45 4.64873C1778.99 8.33913 1784.48 7.6622 1790.26 6.94913C1792.08 6.72492 1793.93 6.49712 1795.78 6.40042C1796.39 6.52113 1796.87 6.80405 1797.34 7.07964C1797.91 7.41932 1798.47 7.74788 1799.21 7.74788C1800.4 7.68863 1801.46 7.26464 1802.55 6.83103C1803.94 6.27854 1805.37 5.71044 1807.12 5.86143C1808.74 7.69302 1811.22 7.42223 1813.67 7.15476V7.1546C1813.93 7.12697 1814.18 7.09937 1814.43 7.07415C1816.67 6.86123 1818.89 7.00578 1821.11 7.15061C1824.51 7.37242 1827.92 7.59487 1831.44 6.53517C1833.84 7.9268 1836.06 7.185 1838.38 6.41168V6.4115C1839.65 5.98684 1840.95 5.55272 1842.33 5.4572C1843.37 5.86143 1844.56 6.26568 1845.76 6.66991C1847.84 5.05296 1850.23 4.91822 1852.47 5.18771C1853.08 5.00397 1853.54 4.68102 1853.99 4.35807C1854.54 3.97054 1855.09 3.58301 1855.9 3.43601C1857.55 4.21532 1859.24 3.83991 1861.01 3.44568C1862.61 3.0901 1864.28 2.71923 1866.04 3.16653C1866.27 2.88505 1866.48 2.61556 1866.68 2.35809V2.35407C1867.15 1.75039 1867.57 1.21273 1867.98 0.741107C1869.99 1.6835 1871.93 1.28079 1874.04 0.843314C1876.15 0.405068 1878.42 -0.0680734 1881.11 0.741107C1881.31 0.847159 1881.5 1.01813 1881.72 1.21265V1.21282C1882.35 1.75976 1883.19 2.49279 1884.84 2.49279C1888.53 0.23222 1892.56 1.22834 1896.64 2.23452C1897.18 2.36787 1897.72 2.50139 1898.26 2.62754C1898.53 2.86347 1898.76 3.14154 1899 3.42804V3.42848V3.42869C1899.72 4.2874 1900.5 5.22144 1902.29 5.32245C1902.69 5.09634 1903.1 4.85506 1903.52 4.60751L1903.53 4.60344C1905.61 3.37679 1907.94 1.99762 1910.8 1.54958H1911.39C1913.18 3.43601 1915.27 3.57076 1917.66 2.62754C1919.3 2.08856 1921.24 2.2233 1922.73 3.16653C1924.35 3.96549 1925.97 3.84329 1927.74 3.71026L1927.8 3.7055C1929.08 3.55499 1930.34 3.34844 1931.59 3.14149C1933.72 2.79262 1935.85 2.44262 1938.09 2.35805C1940.56 2.19875 1942.82 2.83984 1945.06 3.47425C1946.61 3.91307 1948.14 4.34869 1949.73 4.51398C1950.94 4.75652 1952.18 4.75349 1953.42 4.75046C1954.93 4.74676 1956.46 4.74304 1957.93 5.18771C1958.66 5.44921 1959.17 5.26665 1959.68 5.08632C1960.21 4.89496 1960.75 4.70611 1961.51 5.05296H1964.65C1965.59 5.77671 1966.54 5.53664 1967.45 5.30538C1968.41 5.06302 1969.33 4.83034 1970.17 5.72669C1970.91 6.53517 1971.96 7.07415 1973 7.20889C1977.77 7.74787 1982.55 6.9394 1987.17 3.84025C1988.7 4.60222 1989.84 4.75882 1990.97 4.91415C1992.04 5.06098 1993.1 5.20668 1994.48 5.86143C1995.71 6.5084 1996.82 6.08575 1998.1 5.59582V5.59563C1998.69 5.37133 1999.31 5.13297 2000 4.9767V28.8644L1501.37 28.8646H999.451L501.922 28.8644V28.8646H0L0.000403091 4.97666C0.549232 4.89422 1.04209 4.73945 1.58172 4.56999H1.58173C1.92405 4.46249 2.2852 4.34908 2.69138 4.24448C4.54086 4.06902 6.40618 3.83642 8.28219 3.6025C12.1686 3.11788 16.101 2.62754 20.0333 2.62754C20.0333 2.62754 20.1828 2.76229 20.3323 2.76229C24.0697 4.37924 27.9567 5.18771 32.1427 4.64873C32.486 4.85503 32.8196 5.05256 33.146 5.24579L33.1468 5.2463L33.1469 5.24637C34.0992 5.81017 34.9896 6.33743 35.8801 6.9394C37.3751 7.07415 39.9708 7.07415 41.4658 6.66991C43.1103 6.26568 44.7548 6.26568 46.2498 6.9394C48.3208 8.05939 50.5353 7.23997 52.5454 6.49614C53.4374 6.1661 54.2891 5.85093 55.0702 5.72669C56.1981 5.87192 56.8484 6.29104 57.4657 6.68888C57.9939 7.02929 58.4979 7.35412 59.2562 7.47838C60.6362 6.17236 62.5576 6.27285 64.5207 6.37552C66.8108 6.4953 69.1576 6.61804 70.7676 4.51398C71.9607 5.30257 72.7729 4.71805 73.6321 4.09976C74.3877 3.55593 75.1797 2.98599 76.299 3.30127C79.5889 7.03517 82.5807 5.30919 85.6793 3.52161C86.3826 3.11589 87.0913 2.707 87.8104 2.35805C89.6043 3.03178 91.5478 3.03178 93.4913 2.49279C95.8182 4.66492 98.6532 4.54712 101.457 4.43061C103.697 4.33751 105.918 4.24525 107.843 5.32245C109.15 5.10833 110.268 4.55392 111.356 4.01412C113.008 3.19515 114.591 2.40975 116.664 2.89704C118.757 0.741101 121.448 0.606355 123.989 1.41483C124.339 1.25697 124.638 1.19157 124.886 1.13741C125.061 1.0991 125.211 1.0664 125.335 1.0106C128.474 -0.202119 131.315 -0.606356 134.155 1.41483C135.202 2.2233 136.697 2.08856 138.042 1.68432C139.387 1.28009 140.733 1.28009 142.079 1.54958C143.583 1.76371 145.13 1.94003 146.696 2.1186V2.11862C148.087 2.27715 149.493 2.43745 150.899 2.62754C152.633 4.3643 154.864 5.20564 157.112 6.05323C158.352 6.52083 159.597 6.99033 160.766 7.61313C161.954 7.4602 163.129 7.23133 164.3 7.00348C167.254 6.42829 170.176 5.85958 173.174 6.53517C174.819 5.86143 176.463 5.18771 177.659 4.64873C178.053 4.24291 178.235 3.7416 178.413 3.25265C178.707 2.44282 178.989 1.66688 180.201 1.41483C182.725 3.23466 185.568 2.94232 188.461 2.64485C188.996 2.58992 189.532 2.53481 190.068 2.49279C191.169 2.44962 192.256 2.32345 193.332 2.1985C195.614 1.93346 197.849 1.67386 200.084 2.2233C204.121 3.16652 208.157 3.97499 212.492 4.10974C215.333 4.24448 218.173 4.78347 220.565 6.40042C223.816 8.62718 226.049 8.10168 229.428 7.30642C229.934 7.18735 230.466 7.06223 231.03 6.9394C233.572 6.40042 237.758 5.18771 240.299 4.24448C241.047 5.05296 241.794 5.72669 243.289 5.86143C244.037 5.59194 244.934 5.32245 245.98 5.05296C246.887 5.93272 248.053 6.4315 249.192 6.91831C250.494 7.47537 251.76 8.01674 252.558 9.09531C254.077 8.96289 255.563 9.09077 256.991 9.21366C259.921 9.46587 262.606 9.69688 264.817 7.61313C265.714 6.66991 267.508 6.53517 269.003 6.53517C269.294 6.53517 269.596 6.55597 269.907 6.57734C270.714 6.63291 271.578 6.69235 272.442 6.40042C272.946 6.28672 273.318 5.98112 273.713 5.65569C274.255 5.20979 274.843 4.72662 275.88 4.64873C280.429 8.33914 285.931 7.6622 291.725 6.94913C293.547 6.72492 295.398 6.49712 297.258 6.40042C297.861 6.52113 298.343 6.80405 298.814 7.07964C299.393 7.41932 299.954 7.74788 300.697 7.74788C301.88 7.68863 302.947 7.26464 304.039 6.83103C305.431 6.27854 306.861 5.71044 308.62 5.86143C310.246 7.69303 312.731 7.42222 315.185 7.15476L315.186 7.15472C315.44 7.12705 315.693 7.09942 315.945 7.07415C318.19 6.86123 320.41 7.00578 322.636 7.15062C326.043 7.37242 329.461 7.59487 332.988 6.53517C335.401 7.9268 337.626 7.185 339.947 6.41167C341.221 5.98696 342.524 5.55274 343.902 5.4572C344.948 5.86135 346.144 6.26551 347.34 6.66967V6.66991C349.433 5.05296 351.825 4.91822 354.068 5.18771C354.679 5.00397 355.136 4.68102 355.594 4.35807C356.142 3.97054 356.691 3.58301 357.506 3.43601C359.157 4.21532 360.849 3.83991 362.626 3.44568C364.228 3.0901 365.9 2.71922 367.672 3.16653C367.895 2.88523 368.105 2.61591 368.305 2.35858C368.776 1.75307 369.196 1.2139 369.616 0.741107C371.632 1.6835 373.574 1.28079 375.683 0.843315C377.797 0.405068 380.078 -0.0680737 382.771 0.741107C382.968 0.847191 383.164 1.01823 383.387 1.21283C384.014 1.75976 384.855 2.49279 386.509 2.49279C390.205 0.232233 394.251 1.22833 398.337 2.2345C398.879 2.36786 399.421 2.50139 399.964 2.62754C400.226 2.8636 400.46 3.14187 400.7 3.42853C401.422 4.28728 402.207 5.22143 404 5.32245C404.404 5.09509 404.816 4.85238 405.239 4.60339C407.322 3.37674 409.664 1.99761 412.522 1.54958H413.12C414.914 3.43601 417.007 3.57076 419.399 2.62754C421.043 2.08856 422.987 2.2233 424.482 3.16653C426.107 3.96548 427.732 3.8433 429.501 3.71027L429.565 3.7055C430.845 3.55499 432.105 3.34844 433.366 3.14149C435.494 2.79262 437.628 2.44262 439.88 2.35805C442.354 2.19875 444.62 2.83985 446.862 3.47425C448.412 3.91308 449.952 4.34869 451.541 4.51398C452.752 4.75652 453.993 4.75349 455.237 4.75046C456.758 4.74676 458.283 4.74304 459.763 5.18771C460.489 5.44921 461.003 5.26665 461.511 5.08632C462.05 4.89496 462.582 4.70611 463.351 5.05296H466.491C467.44 5.77671 468.389 5.53664 469.303 5.30538C470.261 5.06302 471.181 4.83034 472.022 5.72669C472.77 6.53517 473.816 7.07415 474.863 7.20889C479.647 7.74787 484.431 6.9394 489.065 3.84025C490.602 4.60222 491.744 4.75882 492.877 4.91415Z"
                        fill="#374F4C"
                    />
                </svg>
