<svg preserveAspectRatio="xMidYMid meet" width="2185" height="48" viewBox="0 0 2185 48" fill="none" xmlns="http://www.w3.org/2000/svg">
<path fill-rule="evenodd" clip-rule="evenodd" d="M7.89326 4.66424C6.95894 4.52542 6.03178 4.38767 4.82744 3.76862C3.26206 2.87685 1.04448 2.74945 0.000899499 3.38643L0 0L4.6198e-05 48H437H874H2185V4.6051C2184.52 4.68306 2184.09 4.82939 2183.62 4.9896C2183.32 5.09123 2183.01 5.19845 2182.65 5.29734C2181.04 5.46315 2179.41 5.6829 2177.78 5.90394L2177.77 5.90432C2174.38 6.36251 2170.95 6.8261 2167.52 6.8261C2167.52 6.8261 2167.39 6.69871 2167.26 6.69871C2164 5.16995 2160.61 4.40557 2156.95 4.91515C2156.65 4.71993 2156.36 4.53302 2156.08 4.35017C2155.25 3.81709 2154.47 3.31857 2153.69 2.74942C2152.39 2.62202 2151.08 2.62202 2149.78 3.00421C2148.34 3.3864 2146.91 3.3864 2145.6 2.74942C2143.8 1.69052 2141.87 2.46525 2140.11 3.1685L2140.11 3.16927L2140.11 3.16995C2139.33 3.48147 2138.59 3.7787 2137.91 3.89599C2136.92 3.75868 2136.36 3.36241 2135.82 2.98628L2135.82 2.98562C2135.36 2.664 2134.92 2.35724 2134.26 2.23984C2133.05 3.47463 2131.37 3.37961 2129.66 3.28254C2127.66 3.1693 2125.62 3.05324 2124.21 5.04256C2123.17 4.29698 2122.46 4.84962 2121.71 5.43419C2121.05 5.94835 2120.36 6.48721 2119.38 6.18913C2116.51 2.65921 2113.9 4.29041 2111.2 5.98033L2111.2 5.9808L2111.18 5.99074C2110.58 6.37107 2109.96 6.75383 2109.34 7.0809C2107.77 6.44392 2106.08 6.44392 2104.38 6.95351C2102.35 4.89985 2099.88 5.01123 2097.43 5.12139C2095.48 5.2094 2093.54 5.29664 2091.86 4.27818C2090.72 4.48049 2089.75 5.00408 2088.8 5.51413L2088.79 5.51516C2087.35 6.28946 2085.97 7.03203 2084.16 6.57132C2082.34 8.60967 2079.99 8.73706 2077.77 7.97268C2077.47 8.12193 2077.21 8.18375 2076.99 8.23497C2076.84 8.27119 2076.71 8.3021 2076.6 8.35487C2073.86 9.50149 2071.38 9.88368 2068.9 7.97268C2067.99 7.2083 2066.68 7.33569 2065.51 7.71789C2064.34 8.10007 2063.16 8.10007 2061.99 7.84529C2060.67 7.64282 2059.33 7.47611 2057.96 7.30728L2057.95 7.30658C2056.74 7.15693 2055.52 7.00557 2054.29 6.82611C2052.78 5.18407 2050.83 4.38862 2048.87 3.58727L2048.87 3.58643L2048.87 3.58627C2047.79 3.1445 2046.7 2.70083 2045.68 2.11244C2044.65 2.25703 2043.62 2.47341 2042.6 2.68884C2040.02 3.23265 2037.47 3.77036 2034.85 3.13162C2033.42 3.76859 2031.98 4.40558 2030.94 4.91516C2030.6 5.29863 2030.44 5.77227 2030.28 6.23431L2030.28 6.23511L2030.28 6.23621C2030.03 7.00147 2029.78 7.7345 2028.72 7.97268C2026.52 6.25211 2024.04 6.52851 2021.52 6.80974L2021.51 6.81035C2021.05 6.86209 2020.58 6.91394 2020.11 6.95351C2019.15 6.99433 2018.2 7.11362 2017.27 7.23175C2015.28 7.48234 2013.33 7.72778 2011.37 7.20831C2007.85 6.31653 2004.33 5.55215 2000.55 5.42476C1998.07 5.29736 1995.59 4.78777 1993.5 3.25901C1990.67 1.1537 1988.72 1.65054 1985.77 2.40242L1985.77 2.40321L1985.76 2.40578C1985.32 2.51736 1984.86 2.63446 1984.37 2.74943C1982.15 3.25902 1978.5 4.40559 1976.28 5.29736C1975.63 4.53298 1974.98 3.896 1973.67 3.7686C1973.02 4.0234 1972.24 4.27819 1971.33 4.53298C1970.54 3.70177 1969.52 3.23027 1968.53 2.7703L1968.53 2.77021L1968.52 2.76937C1967.39 2.2427 1966.28 1.73085 1965.59 0.711087C1964.26 0.836212 1962.97 0.715548 1961.72 0.599444L1961.72 0.599405L1961.72 0.599188C1959.16 0.360755 1956.82 0.142331 1954.89 2.11245C1954.11 3.00422 1952.54 3.13162 1951.24 3.13163C1950.98 3.13163 1950.72 3.11195 1950.45 3.09174C1949.74 3.03921 1948.99 2.98302 1948.24 3.25902C1947.8 3.36652 1947.47 3.65545 1947.13 3.96313L1947.13 3.9639L1947.13 3.96456C1946.65 4.38575 1946.14 4.84161 1945.24 4.91517C1941.27 1.42616 1936.47 2.06601 1931.41 2.74016L1931.41 2.74023C1929.82 2.95223 1928.21 3.16759 1926.58 3.25902C1926.06 3.14489 1925.64 2.87741 1925.23 2.61684L1925.22 2.615L1925.22 2.61476C1924.72 2.29435 1924.23 1.98506 1923.58 1.98506C1922.55 2.04108 1921.62 2.44195 1920.67 2.8519C1919.45 3.37425 1918.2 3.91136 1916.67 3.7686C1915.25 2.03691 1913.08 2.29294 1910.94 2.54582C1910.72 2.572 1910.5 2.59814 1910.28 2.62204C1908.32 2.82331 1906.38 2.68672 1904.44 2.54981L1904.44 2.54974C1901.47 2.34004 1898.48 2.12971 1895.41 3.13163C1893.3 1.8159 1891.36 2.51724 1889.34 3.24838L1889.33 3.24929C1888.22 3.65056 1887.09 4.06054 1885.88 4.1508C1884.97 3.76865 1883.93 3.3865 1882.88 3.00435V3.00423C1881.06 4.53299 1878.97 4.66039 1877.01 4.4056C1876.48 4.57932 1876.08 4.88465 1875.68 5.18998L1875.68 5.19174C1875.2 5.55755 1874.72 5.923 1874.01 6.06175C1872.57 5.32495 1871.1 5.67989 1869.55 6.05262L1869.55 6.05285C1868.15 6.38895 1866.69 6.73935 1865.14 6.31655C1864.99 6.5188 1864.85 6.71449 1864.72 6.90363L1864.69 6.93714L1864.67 6.97188L1864.59 7.08076C1864.18 7.65311 1863.81 8.16275 1863.45 8.60968C1861.69 7.71868 1859.99 8.09942 1858.15 8.51304C1856.31 8.92739 1854.32 9.37468 1851.97 8.60968C1851.8 8.51026 1851.63 8.35052 1851.44 8.16854L1851.43 8.16368L1851.43 8.16245C1850.88 7.64548 1850.15 6.95352 1848.71 6.95352C1845.48 9.0908 1841.95 8.14903 1838.39 7.19773C1837.91 7.07165 1837.44 6.94541 1836.97 6.82613C1836.74 6.60338 1836.53 6.34087 1836.32 6.07038L1836.32 6.0697L1836.32 6.06884C1835.69 5.25693 1835.01 4.37371 1833.44 4.27821C1833.09 4.49316 1832.73 4.72264 1832.36 4.95805L1832.36 4.95826C1830.55 6.11795 1828.5 7.42173 1826.01 7.84531H1825.49C1823.92 6.06175 1822.1 5.93436 1820.01 6.82613C1818.57 7.33572 1816.88 7.20832 1815.57 6.31655C1814.15 5.56117 1812.74 5.67668 1811.19 5.80246L1811.14 5.80696C1810.02 5.94926 1808.92 6.14456 1807.82 6.34022C1805.96 6.67006 1804.1 7.00097 1802.14 7.08093C1799.98 7.23154 1798 6.62541 1796.04 6.02561C1794.69 5.61071 1793.35 5.19886 1791.96 5.04258C1790.91 4.81328 1789.82 4.81614 1788.74 4.81901C1787.41 4.82251 1786.08 4.82602 1784.79 4.4056C1784.15 4.15836 1783.71 4.33097 1783.26 4.50146C1782.79 4.68238 1782.33 4.86093 1781.66 4.533H1778.92C1778.09 3.84873 1777.26 4.07571 1776.46 4.29436C1775.63 4.5235 1774.82 4.74348 1774.09 3.89602C1773.44 3.13164 1772.53 2.62205 1771.61 2.49465C1767.44 1.98507 1763.26 2.74945 1759.22 5.67957C1757.88 4.95915 1756.88 4.8111 1755.89 4.66424C1754.96 4.52542 1754.03 4.38767 1752.83 3.76862C1751.26 2.87685 1749.04 2.74945 1748 3.38643L1748 0L1748 4.6051C1747.52 4.68306 1747.09 4.82939 1746.62 4.9896C1746.32 5.09123 1746.01 5.19845 1745.65 5.29734C1744.04 5.46324 1742.41 5.68316 1740.77 5.90432C1737.38 6.36251 1733.95 6.8261 1730.52 6.8261C1730.52 6.8261 1730.39 6.69871 1730.26 6.69871C1727 5.16995 1723.61 4.40557 1719.95 4.91515C1719.65 4.71993 1719.36 4.53302 1719.08 4.35017C1718.25 3.81709 1717.47 3.31857 1716.69 2.74942C1715.39 2.62202 1714.08 2.62202 1712.78 3.00421C1711.34 3.3864 1709.91 3.3864 1708.6 2.74942C1706.8 1.6906 1704.87 2.46512 1703.11 3.16832L1703.11 3.1685L1703.11 3.16956L1703.11 3.16997L1703.11 3.17031C1702.33 3.4817 1701.59 3.77875 1700.91 3.89599C1699.92 3.75868 1699.36 3.36241 1698.82 2.98628L1698.82 2.98586L1698.82 2.98561L1698.82 2.98546C1698.36 2.6639 1697.92 2.35722 1697.26 2.23984C1696.05 3.47463 1694.37 3.37961 1692.66 3.28254C1690.66 3.1693 1688.62 3.05324 1687.21 5.04256C1686.17 4.29698 1685.46 4.84962 1684.71 5.43419C1684.05 5.94835 1683.36 6.48721 1682.38 6.18913C1679.51 2.65921 1676.9 4.29041 1674.2 5.98034L1674.2 5.9808L1674.18 5.9921L1674.18 5.99477C1673.57 6.37377 1672.96 6.75498 1672.34 7.0809C1670.77 6.44392 1669.08 6.44392 1667.38 6.95351C1665.35 4.89985 1662.88 5.01123 1660.43 5.12139C1658.48 5.2094 1656.54 5.29664 1654.86 4.27818C1653.72 4.48038 1652.75 5.00347 1651.8 5.51323L1651.8 5.51388L1651.79 5.51516C1650.35 6.28946 1648.97 7.03203 1647.16 6.57132C1645.34 8.60967 1642.99 8.73706 1640.77 7.97268C1640.47 8.12193 1640.21 8.18375 1639.99 8.23497C1639.84 8.27119 1639.71 8.3021 1639.6 8.35487C1636.86 9.50149 1634.38 9.88368 1631.9 7.97268C1630.99 7.2083 1629.68 7.33569 1628.51 7.71789C1627.34 8.10007 1626.16 8.10007 1624.99 7.84529C1623.67 7.64282 1622.33 7.47611 1620.96 7.30728L1620.95 7.30635L1620.95 7.30616C1619.74 7.15665 1618.52 7.0054 1617.29 6.82611C1615.78 5.18407 1613.83 4.38862 1611.87 3.58727L1611.87 3.58643C1610.79 3.14461 1609.7 2.70091 1608.68 2.11244C1607.65 2.25703 1606.62 2.47341 1605.6 2.68884C1603.02 3.23265 1600.47 3.77036 1597.85 3.13162C1596.42 3.76859 1594.98 4.40558 1593.94 4.91516C1593.6 5.29863 1593.44 5.77227 1593.28 6.23431L1593.28 6.23511L1593.28 6.23621C1593.03 7.00147 1592.78 7.7345 1591.72 7.97268C1589.52 6.25211 1587.04 6.52851 1584.52 6.80974L1584.51 6.81035C1584.05 6.86209 1583.58 6.91394 1583.11 6.95351C1582.15 6.99433 1581.2 7.11362 1580.27 7.23175C1578.28 7.48234 1576.33 7.72778 1574.37 7.20831C1570.85 6.31653 1567.33 5.55215 1563.55 5.42476C1561.07 5.29736 1558.59 4.78777 1556.5 3.25901C1553.67 1.1537 1551.72 1.65054 1548.77 2.40242L1548.77 2.40321L1548.76 2.40578C1548.32 2.51736 1547.86 2.63446 1547.37 2.74943C1545.15 3.25902 1541.5 4.40559 1539.28 5.29736C1538.63 4.53298 1537.98 3.896 1536.67 3.7686C1536.02 4.0234 1535.24 4.27819 1534.33 4.53298C1533.54 3.70177 1532.52 3.23027 1531.53 2.7703L1531.53 2.77021L1531.52 2.76937C1530.39 2.2427 1529.28 1.73085 1528.59 0.711087C1527.26 0.836212 1525.97 0.715548 1524.72 0.599444L1524.72 0.599405L1524.72 0.599188C1522.16 0.360755 1519.82 0.142331 1517.89 2.11245C1517.11 3.00422 1515.54 3.13162 1514.24 3.13163C1513.98 3.13163 1513.72 3.11195 1513.45 3.09174C1512.74 3.03921 1511.99 2.98302 1511.24 3.25902C1510.8 3.36652 1510.47 3.65545 1510.13 3.96313L1510.13 3.9639L1510.13 3.96456C1509.65 4.38575 1509.14 4.84161 1508.24 4.91517C1504.27 1.42616 1499.47 2.06601 1494.41 2.74016L1494.41 2.74023C1492.82 2.95223 1491.21 3.16759 1489.58 3.25902C1489.06 3.14489 1488.64 2.87741 1488.23 2.61684L1488.22 2.615L1488.22 2.61476C1487.72 2.29435 1487.23 1.98506 1486.58 1.98506C1485.55 2.04108 1484.62 2.44195 1483.67 2.8519C1482.45 3.37425 1481.2 3.91136 1479.67 3.7686C1478.25 2.03691 1476.08 2.29294 1473.94 2.54582C1473.72 2.572 1473.5 2.59814 1473.28 2.62204C1471.32 2.82331 1469.38 2.68672 1467.44 2.54981L1467.44 2.54974C1464.47 2.34004 1461.48 2.12971 1458.41 3.13163C1456.3 1.8159 1454.36 2.51724 1452.34 3.24838L1452.33 3.24929C1451.22 3.65056 1450.09 4.06054 1448.88 4.1508C1447.97 3.76865 1446.93 3.3865 1445.88 3.00435V3.00423C1444.06 4.53299 1441.97 4.66039 1440.01 4.4056C1439.48 4.57932 1439.08 4.88465 1438.68 5.18998L1438.68 5.19174C1438.2 5.55755 1437.72 5.923 1437.01 6.06175C1435.57 5.32495 1434.1 5.67989 1432.55 6.05262L1432.55 6.05285C1431.15 6.38895 1429.69 6.73935 1428.14 6.31655C1427.99 6.5188 1427.85 6.71449 1427.72 6.90363L1427.69 6.93714L1427.67 6.97188L1427.59 7.08076C1427.18 7.65311 1426.81 8.16275 1426.45 8.60968C1424.69 7.71868 1422.99 8.09942 1421.15 8.51304C1419.31 8.92739 1417.32 9.37468 1414.97 8.60968C1414.8 8.51026 1414.63 8.35052 1414.44 8.16854L1414.43 8.16368L1414.43 8.16245C1413.88 7.64548 1413.15 6.95352 1411.71 6.95352C1408.48 9.0908 1404.95 8.14903 1401.39 7.19773C1400.91 7.07165 1400.44 6.94541 1399.97 6.82613C1399.74 6.60338 1399.53 6.34087 1399.32 6.07038L1399.32 6.0697L1399.32 6.06884C1398.69 5.25693 1398.01 4.37371 1396.44 4.27821C1396.09 4.49316 1395.73 4.72264 1395.36 4.95805L1395.36 4.95826C1393.55 6.11795 1391.5 7.42173 1389.01 7.84531H1388.49C1386.92 6.06175 1385.1 5.93436 1383.01 6.82613C1381.57 7.33572 1379.88 7.20832 1378.57 6.31655C1377.15 5.56117 1375.74 5.67668 1374.19 5.80246L1374.14 5.80696C1373.02 5.94926 1371.92 6.14456 1370.82 6.34022C1368.96 6.67006 1367.1 7.00097 1365.14 7.08093C1362.98 7.23154 1361 6.62541 1359.04 6.02561C1357.69 5.61071 1356.35 5.19886 1354.96 5.04258C1353.91 4.81328 1352.82 4.81614 1351.74 4.81901C1350.41 4.82251 1349.08 4.82602 1347.79 4.4056C1347.15 4.15836 1346.71 4.33097 1346.26 4.50146C1345.79 4.68238 1345.33 4.86093 1344.66 4.533H1341.92C1341.09 3.84873 1340.26 4.07571 1339.46 4.29436C1338.63 4.5235 1337.82 4.74348 1337.09 3.89602C1336.44 3.13164 1335.53 2.62205 1334.61 2.49465C1330.44 1.98507 1326.26 2.74945 1322.22 5.67957C1320.88 4.95915 1319.88 4.8111 1318.89 4.66424C1317.96 4.52542 1317.03 4.38767 1315.83 3.76862C1314.26 2.87685 1312.04 2.74945 1311 3.38643L1311 0L1311 4.6051C1310.52 4.68306 1310.09 4.82939 1309.62 4.9896C1309.32 5.09123 1309.01 5.19845 1308.65 5.29734C1307.04 5.46324 1305.41 5.68316 1303.77 5.90432C1300.38 6.36251 1296.95 6.8261 1293.52 6.8261C1293.52 6.8261 1293.39 6.69871 1293.26 6.69871C1290 5.16995 1286.61 4.40557 1282.95 4.91515C1282.65 4.71993 1282.36 4.53302 1282.08 4.35017C1281.25 3.81709 1280.47 3.31857 1279.69 2.74942C1278.39 2.62202 1277.08 2.62202 1275.78 3.00421C1274.34 3.3864 1272.91 3.3864 1271.6 2.74942C1269.8 1.6906 1267.87 2.46512 1266.11 3.16832L1266.11 3.1685L1266.11 3.16956L1266.11 3.16997L1266.11 3.17031C1265.33 3.4817 1264.59 3.77875 1263.91 3.89599C1262.92 3.75868 1262.36 3.36241 1261.82 2.98628L1261.82 2.98586L1261.82 2.98561L1261.82 2.98546V2.98538C1261.36 2.66385 1260.92 2.35721 1260.26 2.23984C1259.05 3.47463 1257.37 3.37961 1255.66 3.28254C1253.66 3.1693 1251.62 3.05324 1250.21 5.04256C1249.17 4.29698 1248.46 4.84962 1247.71 5.43419C1247.05 5.94835 1246.36 6.48721 1245.38 6.18913C1242.51 2.65921 1239.9 4.29041 1237.2 5.98034L1237.2 5.9808L1237.18 5.9921L1237.18 5.99477C1236.57 6.37377 1235.96 6.75498 1235.34 7.0809C1233.77 6.44392 1232.08 6.44392 1230.38 6.95351C1228.35 4.89985 1225.88 5.01123 1223.43 5.12139C1221.48 5.2094 1219.54 5.29664 1217.86 4.27818C1216.72 4.48038 1215.75 5.00347 1214.8 5.51323L1214.8 5.51388L1214.79 5.51516C1213.35 6.28946 1211.97 7.03203 1210.16 6.57132C1208.34 8.60967 1205.99 8.73706 1203.77 7.97268C1203.47 8.12193 1203.21 8.18375 1202.99 8.23497C1202.84 8.27119 1202.71 8.3021 1202.6 8.35487C1199.86 9.50149 1197.38 9.88368 1194.9 7.97268C1193.99 7.2083 1192.68 7.33569 1191.51 7.71789C1190.34 8.10007 1189.16 8.10007 1187.99 7.84529C1186.67 7.64282 1185.33 7.47611 1183.96 7.30728L1183.95 7.30635L1183.95 7.30616C1182.74 7.15665 1181.52 7.0054 1180.29 6.82611C1178.78 5.18407 1176.83 4.38862 1174.87 3.58727L1174.87 3.58643C1173.79 3.14461 1172.7 2.70091 1171.68 2.11244C1170.65 2.25703 1169.62 2.47341 1168.6 2.68884C1166.02 3.23265 1163.47 3.77036 1160.85 3.13162C1159.42 3.76859 1157.98 4.40558 1156.94 4.91516C1156.6 5.29863 1156.44 5.77227 1156.28 6.23431L1156.28 6.23511L1156.28 6.23621C1156.03 7.00147 1155.78 7.7345 1154.72 7.97268C1152.52 6.25211 1150.04 6.52851 1147.52 6.80974L1147.51 6.81035C1147.05 6.86209 1146.58 6.91394 1146.11 6.95351C1145.15 6.99433 1144.2 7.11362 1143.27 7.23175C1141.28 7.48234 1139.33 7.72778 1137.37 7.20831C1133.85 6.31653 1130.33 5.55215 1126.55 5.42476C1124.07 5.29736 1121.59 4.78777 1119.5 3.25901C1116.67 1.1537 1114.72 1.65054 1111.77 2.40242L1111.77 2.40321L1111.76 2.40578C1111.32 2.51736 1110.86 2.63446 1110.37 2.74943C1108.15 3.25902 1104.5 4.40559 1102.28 5.29736C1101.63 4.53298 1100.98 3.896 1099.67 3.7686C1099.02 4.0234 1098.24 4.27819 1097.33 4.53298C1096.54 3.70177 1095.52 3.23027 1094.53 2.7703L1094.53 2.77021L1094.52 2.76937C1093.39 2.2427 1092.28 1.73085 1091.59 0.711087C1090.26 0.836212 1088.97 0.715548 1087.72 0.599444L1087.72 0.599405L1087.72 0.599188C1085.16 0.360755 1082.82 0.142331 1080.89 2.11245C1080.11 3.00422 1078.54 3.13162 1077.24 3.13163C1076.98 3.13163 1076.72 3.11195 1076.45 3.09174C1075.74 3.03921 1074.99 2.98302 1074.24 3.25902C1073.8 3.36652 1073.47 3.65545 1073.13 3.96313L1073.13 3.9639L1073.13 3.96456C1072.65 4.38575 1072.14 4.84161 1071.24 4.91517C1067.27 1.42616 1062.47 2.06601 1057.41 2.74016L1057.41 2.74023C1055.82 2.95223 1054.21 3.16759 1052.58 3.25902C1052.06 3.14489 1051.64 2.87741 1051.23 2.61684L1051.22 2.615L1051.22 2.61476V2.61468C1050.72 2.2943 1050.23 1.98506 1049.58 1.98506C1048.55 2.04108 1047.62 2.44195 1046.67 2.8519C1045.45 3.37425 1044.2 3.91136 1042.67 3.7686C1041.25 2.03691 1039.08 2.29294 1036.94 2.54582C1036.72 2.572 1036.5 2.59814 1036.28 2.62204C1034.32 2.82331 1032.38 2.68672 1030.44 2.54981L1030.44 2.54974C1027.47 2.34004 1024.48 2.12971 1021.41 3.13163C1019.3 1.8159 1017.36 2.51724 1015.34 3.24838L1015.33 3.24921C1014.22 3.6505 1013.09 4.06054 1011.88 4.1508C1010.97 3.76865 1009.93 3.3865 1008.88 3.00435V3.00423C1007.06 4.53299 1004.97 4.66039 1003.01 4.4056C1002.48 4.57932 1002.08 4.88465 1001.68 5.18998L1001.68 5.19199C1001.2 5.55772 1000.72 5.92303 1000.01 6.06175C998.573 5.32504 997.097 5.6798 995.547 6.05247L995.546 6.05262L995.546 6.05277C994.147 6.3889 992.689 6.73938 991.143 6.31655C990.976 6.54466 990.818 6.76443 990.666 6.97587L990.59 7.08076C990.179 7.65311 989.813 8.16275 989.447 8.60968C987.688 7.71868 985.993 8.09942 984.153 8.51304C982.309 8.92739 980.318 9.37468 977.968 8.60968C977.798 8.51047 977.629 8.3512 977.437 8.16972L977.437 8.16947L977.431 8.16368L977.43 8.16269C976.882 7.64569 976.149 6.95352 974.706 6.95352C971.482 9.0908 967.951 8.14903 964.385 7.19773L964.384 7.19746C963.912 7.07147 963.439 6.94532 962.966 6.82613C962.738 6.60362 962.535 6.34145 962.325 6.07128L962.325 6.07088L962.325 6.07036L962.324 6.0697L962.323 6.06884C961.694 5.25693 961.009 4.37371 959.444 4.27821C959.096 4.49081 958.74 4.71761 958.375 4.95032L958.374 4.95128L958.373 4.95201L958.366 4.95666L958.363 4.95805L958.363 4.95826C956.546 6.11795 954.502 7.42173 952.009 7.84531H951.487C949.921 6.06175 948.095 5.93436 946.008 6.82613C944.573 7.33572 942.877 7.20832 941.573 6.31655C940.155 5.56117 938.737 5.67668 937.193 5.80246L937.138 5.80696C936.02 5.94926 934.921 6.14456 933.82 6.34022C931.964 6.67006 930.102 7.00097 928.137 7.08093C925.978 7.23154 924.001 6.62541 922.045 6.02561C920.692 5.61071 919.349 5.19886 917.962 5.04258C916.905 4.81328 915.822 4.81614 914.736 4.81901C913.41 4.82251 912.079 4.82602 910.787 4.4056C910.154 4.15836 909.706 4.33097 909.262 4.50146C908.792 4.68238 908.328 4.86093 907.656 4.533H904.917C904.089 3.84873 903.261 4.07571 902.463 4.29436C901.627 4.5235 900.825 4.74348 900.09 3.89602C899.438 3.13164 898.525 2.62205 897.612 2.49465C893.438 1.98507 889.263 2.74945 885.219 5.67957C883.878 4.95915 882.882 4.8111 881.893 4.66424C880.959 4.52542 880.032 4.38767 878.827 3.76862C877.262 2.87685 875.044 2.74945 874.001 3.38643L874 0L874 48V4.6051C873.521 4.68306 873.091 4.82939 872.62 4.9896C872.322 5.09123 872.006 5.19845 871.652 5.29734C870.038 5.46324 868.41 5.68316 866.773 5.90432C863.382 6.36251 859.951 6.8261 856.52 6.8261C856.52 6.8261 856.389 6.69871 856.259 6.69871C852.998 5.16995 849.606 4.40557 845.954 4.91515C845.654 4.71993 845.363 4.53302 845.078 4.35017C844.247 3.81709 843.469 3.31857 842.692 2.74942C841.388 2.62202 840.083 2.62202 838.779 3.00421C837.344 3.3864 835.909 3.3864 834.605 2.74942C832.798 1.69065 830.866 2.46505 829.112 3.16823L829.111 3.16832L829.111 3.1685L829.109 3.16913C828.332 3.48095 827.59 3.7786 826.908 3.89599C825.924 3.75868 825.357 3.36241 824.818 2.98628L824.818 2.98574L824.817 2.98567C824.356 2.66404 823.917 2.35725 823.256 2.23984C822.052 3.47463 820.375 3.37961 818.662 3.28254C816.663 3.1693 814.616 3.05324 813.211 5.04256C812.17 4.29698 811.461 4.84962 810.712 5.43419C810.053 5.94835 809.361 6.48721 808.385 6.18913C805.514 2.65926 802.905 4.29037 800.201 5.98026L800.2 5.9808L800.18 5.99344C799.572 6.37288 798.961 6.7546 798.34 7.0809C796.775 6.44392 795.079 6.44392 793.383 6.95351C791.353 4.89985 788.879 5.01123 786.433 5.12139C784.478 5.2094 782.54 5.29664 780.86 4.27818C779.721 4.48051 778.746 5.00416 777.796 5.51425L777.795 5.51516C776.354 6.28946 774.972 7.03203 773.164 6.57132C771.337 8.60967 768.989 8.73706 766.772 7.97268C766.466 8.12193 766.205 8.18375 765.989 8.23497C765.836 8.27119 765.706 8.3021 765.598 8.35487C762.858 9.50149 760.38 9.88368 757.901 7.97268C756.988 7.2083 755.684 7.33569 754.51 7.71789C753.336 8.10007 752.162 8.10007 750.988 7.84529C749.675 7.64282 748.326 7.47611 746.959 7.30728L746.953 7.30659L746.952 7.30644C745.741 7.15684 744.516 7.00551 743.291 6.82611C741.778 5.18407 739.832 4.38862 737.87 3.58727L737.868 3.58643C736.787 3.14461 735.701 2.70091 734.682 2.11244C733.646 2.25703 732.62 2.47341 731.598 2.68884C729.02 3.23265 726.471 3.77036 723.854 3.13162C722.42 3.76859 720.985 4.40558 719.941 4.91516C719.598 5.29852 719.439 5.77201 719.285 6.23392L719.284 6.23511L719.284 6.23621C719.027 7.00147 718.781 7.7345 717.723 7.97268C715.522 6.25211 713.04 6.52851 710.516 6.80974L710.511 6.81035C710.046 6.86209 709.58 6.91394 709.114 6.95351C708.153 6.99433 707.205 7.11362 706.266 7.23175C704.275 7.48234 702.325 7.72778 700.374 7.20831C696.852 6.31653 693.33 5.55215 689.547 5.42476C687.068 5.29736 684.59 4.78777 682.503 3.25901C679.666 1.1537 677.718 1.65054 674.77 2.40242L674.765 2.40379L674.761 2.40465C674.322 2.51656 673.861 2.63407 673.371 2.74943C671.154 3.25902 667.501 4.40559 665.283 5.29736C664.631 4.53298 663.979 3.896 662.674 3.7686C662.022 4.0234 661.24 4.27819 660.326 4.53298C659.537 3.70182 658.519 3.23033 657.527 2.77038L657.525 2.76937C656.388 2.2427 655.284 1.73085 654.587 0.711087C653.263 0.836229 651.967 0.715516 650.721 0.599397L650.719 0.599188C648.162 0.360755 645.82 0.142331 643.89 2.11245C643.107 3.00422 641.542 3.13162 640.237 3.13163C639.984 3.13163 639.721 3.11198 639.45 3.09178L639.449 3.09174C638.745 3.03921 637.991 2.98302 637.238 3.25902C636.797 3.36652 636.473 3.65545 636.128 3.96313L636.128 3.9639C635.654 4.38527 635.142 4.84157 634.238 4.91517C630.268 1.42615 625.468 2.06602 620.412 2.74016L620.411 2.74023C618.822 2.95223 617.206 3.16759 615.584 3.25902C615.057 3.14489 614.636 2.87741 614.226 2.61684L614.224 2.61526C613.719 2.29467 613.231 1.98506 612.583 1.98506C611.551 2.04108 610.619 2.44195 609.667 2.8519C608.453 3.37425 607.204 3.91136 605.67 3.7686C604.251 2.03691 602.082 2.29294 599.941 2.54582C599.719 2.572 599.498 2.59814 599.278 2.62204C597.32 2.82331 595.383 2.68672 593.441 2.54981L593.44 2.54974C590.467 2.34004 587.484 2.12971 584.407 3.13163C582.302 1.8159 580.359 2.51724 578.335 3.24838L578.333 3.24921C577.221 3.6505 576.085 4.06054 574.884 4.1508C573.971 3.76865 572.927 3.3865 571.884 3.00435V3.00423C570.058 4.53299 567.97 4.66039 566.014 4.4056C565.48 4.57932 565.081 4.88465 564.682 5.18998L564.68 5.19199C564.201 5.55772 563.724 5.92303 563.013 6.06175C561.573 5.32504 560.097 5.6798 558.547 6.05247L558.546 6.05262L558.546 6.05277C557.147 6.3889 555.689 6.73938 554.143 6.31655C553.976 6.54466 553.818 6.76443 553.666 6.97587L553.59 7.08076C553.179 7.65311 552.813 8.16275 552.447 8.60968C550.688 7.71868 548.993 8.09942 547.153 8.51304C545.309 8.92739 543.318 9.37468 540.968 8.60968C540.798 8.51047 540.629 8.3512 540.437 8.16972L540.437 8.16947L540.431 8.16368L540.43 8.16269C539.882 7.64569 539.149 6.95352 537.706 6.95352C534.482 9.0908 530.951 8.14903 527.385 7.19773L527.384 7.19746C526.912 7.07147 526.439 6.94532 525.966 6.82613C525.738 6.60351 525.535 6.34119 525.325 6.07088L525.325 6.07036L525.324 6.0697L525.323 6.06884C524.694 5.25693 524.009 4.37371 522.444 4.27821C522.095 4.4911 521.739 4.71824 521.374 4.95128L521.373 4.95201L521.366 4.95666L521.363 4.95805L521.363 4.95826C519.546 6.11795 517.502 7.42173 515.009 7.84531H514.487C512.921 6.06175 511.095 5.93436 509.008 6.82613C507.573 7.33572 505.877 7.20832 504.573 6.31655C503.155 5.56117 501.737 5.67668 500.193 5.80246L500.138 5.80696C499.02 5.94926 497.921 6.14456 496.82 6.34022L496.82 6.34029C494.964 6.67011 493.102 7.00098 491.137 7.08093C488.978 7.23154 487.001 6.62541 485.045 6.02561C483.692 5.61071 482.349 5.19886 480.962 5.04258C479.905 4.81328 478.822 4.81614 477.736 4.81901C476.41 4.82251 475.079 4.82602 473.787 4.4056C473.154 4.15836 472.706 4.33097 472.262 4.50146C471.792 4.68238 471.328 4.86093 470.656 4.533H467.917C467.089 3.84873 466.261 4.07571 465.463 4.29436C464.627 4.5235 463.825 4.74348 463.09 3.89602C462.438 3.13164 461.525 2.62205 460.612 2.49465C456.438 1.98507 452.263 2.74945 448.219 5.67957C446.878 4.95915 445.882 4.8111 444.893 4.66424C443.959 4.52542 443.032 4.38767 441.827 3.76862C440.262 2.87685 438.044 2.74945 437.001 3.38643L437 0L437 48V4.6051C436.521 4.68306 436.09 4.82939 435.62 4.9896C435.322 5.09123 435.006 5.19845 434.652 5.29734C433.038 5.46324 431.41 5.68316 429.773 5.90432C426.382 6.36251 422.951 6.8261 419.52 6.8261C419.52 6.8261 419.389 6.69871 419.259 6.69871C415.998 5.16995 412.606 4.40557 408.954 4.91515C408.654 4.71993 408.363 4.53302 408.078 4.35017C407.247 3.81709 406.47 3.31857 405.692 2.74942C404.388 2.62202 403.083 2.62202 401.779 3.00421C400.344 3.3864 398.909 3.3864 397.605 2.74942C395.798 1.69061 393.866 2.46511 392.111 3.16831L392.111 3.1685L392.109 3.16927C391.332 3.48104 390.59 3.77862 389.908 3.89599C388.924 3.75868 388.357 3.36241 387.818 2.98628L387.817 2.98568L387.817 2.98558C387.356 2.66398 386.917 2.35724 386.256 2.23984C385.052 3.47463 383.375 3.37961 381.662 3.28254C379.663 3.1693 377.616 3.05324 376.211 5.04256C375.17 4.29698 374.461 4.84962 373.712 5.43419C373.053 5.94835 372.361 6.48721 371.385 6.18913C368.514 2.65927 365.905 4.29035 363.201 5.98025L363.2 5.9808L363.181 5.99277L363.179 5.9937C362.572 6.37305 361.961 6.75468 361.34 7.0809C359.775 6.44392 358.079 6.44392 356.383 6.95351C354.353 4.89985 351.879 5.01123 349.433 5.12139C347.478 5.2094 345.54 5.29664 343.86 4.27818C342.721 4.4805 341.746 5.00412 340.796 5.51419L340.795 5.51516C339.354 6.28946 337.972 7.03203 336.164 6.57132C334.337 8.60967 331.989 8.73706 329.772 7.97268C329.466 8.12193 329.205 8.18375 328.989 8.23497C328.836 8.27119 328.706 8.3021 328.598 8.35487C325.858 9.50149 323.38 9.88368 320.901 7.97268C319.988 7.2083 318.684 7.33569 317.51 7.71789C316.336 8.10007 315.162 8.10007 313.988 7.84529C312.675 7.64282 311.326 7.47611 309.959 7.30728L309.952 7.30646C308.741 7.15685 307.516 7.00552 306.291 6.82611C304.778 5.18407 302.832 4.38862 300.87 3.58727L300.868 3.58634C299.787 3.14454 298.701 2.70086 297.682 2.11244C296.646 2.25703 295.62 2.47341 294.598 2.68884C292.02 3.23265 289.471 3.77036 286.854 3.13162C285.42 3.76859 283.985 4.40558 282.941 4.91516C282.598 5.29852 282.439 5.772 282.285 6.23391L282.284 6.23511L282.284 6.236C282.027 7.00133 281.781 7.73447 280.723 7.97268C278.522 6.25211 276.04 6.52851 273.516 6.80974L273.51 6.81044C273.045 6.86215 272.58 6.91396 272.114 6.95351C271.153 6.99433 270.205 7.11362 269.266 7.23175C267.275 7.48234 265.325 7.72778 263.374 7.20831C259.852 6.31653 256.33 5.55215 252.547 5.42476C250.068 5.29736 247.59 4.78777 245.503 3.25901C242.666 1.1537 240.718 1.65054 237.77 2.40242L237.768 2.4028C237.327 2.51527 236.864 2.63343 236.371 2.74943C234.154 3.25902 230.501 4.40559 228.283 5.29736C227.631 4.53298 226.979 3.896 225.674 3.7686C225.022 4.0234 224.24 4.27819 223.326 4.53298C222.537 3.70182 221.519 3.23033 220.527 2.77038L220.525 2.76937C219.388 2.2427 218.284 1.73085 217.587 0.711087C216.263 0.83623 214.967 0.715514 213.721 0.599395L213.719 0.599188C211.162 0.360755 208.82 0.142331 206.89 2.11245C206.107 3.00422 204.542 3.13162 203.237 3.13163C202.984 3.13163 202.721 3.11199 202.45 3.0918L202.449 3.09174C201.745 3.03921 200.991 2.98302 200.238 3.25902C199.797 3.36652 199.473 3.65545 199.128 3.96313L199.128 3.96375C198.655 4.38516 198.142 4.84156 197.238 4.91517C193.268 1.42616 188.468 2.06602 183.412 2.74016L183.411 2.74023C181.822 2.95223 180.206 3.16759 178.584 3.25902C178.057 3.14489 177.636 2.87741 177.226 2.61684L177.224 2.61515C176.719 2.2946 176.231 1.98506 175.583 1.98506C174.551 2.04108 173.619 2.44195 172.667 2.8519C171.453 3.37425 170.204 3.91136 168.67 3.7686C167.251 2.03691 165.082 2.29294 162.941 2.54582C162.719 2.572 162.498 2.59814 162.278 2.62204C160.32 2.82331 158.383 2.68672 156.441 2.54981L156.44 2.54974C153.467 2.34004 150.484 2.12971 147.407 3.13163C145.302 1.8159 143.359 2.51724 141.335 3.24838L141.333 3.24921L141.333 3.24926C140.221 3.65054 139.085 4.06054 137.884 4.1508C136.971 3.76865 135.927 3.3865 134.884 3.00435V3.00423C133.058 4.53299 130.97 4.66039 129.014 4.4056C128.48 4.5793 128.081 4.8846 127.682 5.18989L127.682 5.18998L127.68 5.1919C127.202 5.55766 126.724 5.92302 126.013 6.06175C124.573 5.32504 123.097 5.6798 121.547 6.05248L121.546 6.05262L121.546 6.05278C120.147 6.38891 118.689 6.73937 117.143 6.31655C116.977 6.54282 116.82 6.76088 116.669 6.97075L116.59 7.08076C116.179 7.65311 115.813 8.16275 115.447 8.60968C113.688 7.71868 111.993 8.09942 110.153 8.51304C108.309 8.92739 106.318 9.37468 103.968 8.60968C103.798 8.51034 103.629 8.35078 103.437 8.169L103.437 8.16893L103.431 8.16368L103.43 8.16261C102.882 7.64562 102.149 6.95352 100.706 6.95352C97.4816 9.0908 93.9511 8.14903 90.3853 7.19773C89.9127 7.07165 89.4394 6.94541 88.9662 6.82613C88.7379 6.60322 88.5341 6.3405 88.3242 6.06981L88.3234 6.06884C87.6938 5.25693 87.0089 4.37371 85.4441 4.27821C85.0924 4.49286 84.7333 4.72198 84.365 4.95704L84.3645 4.95735L84.3634 4.95805L84.3632 4.95821C82.5457 6.11792 80.5024 7.42172 78.0086 7.84531H77.4868C75.9214 6.06175 74.0951 5.93436 72.008 6.82613C70.573 7.33572 68.8772 7.20832 67.5727 6.31655C66.1547 5.56117 64.7367 5.67668 63.1928 5.80246L63.1375 5.80696C62.0204 5.94926 60.9213 6.14456 59.8202 6.34022L59.82 6.34026C57.9638 6.67009 56.1016 7.00097 54.1367 7.08093C51.9776 7.23154 50.0009 6.62541 48.0448 6.02561L48.0446 6.02555C46.6916 5.61067 45.3485 5.19885 43.9617 5.04258C42.9052 4.81328 41.8222 4.81614 40.7365 4.81901C39.4095 4.82251 38.0786 4.82602 36.7872 4.4056C36.1543 4.15838 35.7056 4.33094 35.2624 4.50142L35.2623 4.50146C34.7921 4.68238 34.3279 4.86093 33.6563 4.533H30.9169C30.0889 3.84875 29.2609 4.07569 28.4633 4.29434L28.4632 4.29436L28.4632 4.29437C27.6272 4.5235 26.8247 4.74347 26.0904 3.89602C25.4382 3.13164 24.5251 2.62205 23.6119 2.49465C19.4376 1.98507 15.2633 2.74945 11.2194 5.67957C9.87823 4.95916 8.88173 4.81111 7.89329 4.66425L7.89326 4.66424Z" fill="#CAD4BD"/>
</svg>
